<?xml version="1.0" encoding="utf-8"?>
<!-- Generator: Adobe Illustrator 22.0.1, SVG Export Plug-In . SVG Version: 6.00 Build 0)  -->
<svg version="1.1" id="Calque_1" xmlns="http://www.w3.org/2000/svg" xmlns:xlink="http://www.w3.org/1999/xlink" x="0px" y="0px"
	 viewBox="0 0 432 432" style="enable-background:new 0 0 432 432;" xml:space="preserve">
<style type="text/css">
	.st0{fill:#7C4F6A;}
	.st1{fill:#3C3C3B;}
	.st2{fill:#C6C6C5;}
	.st3{fill:#575756;}
	.st4{fill:#C99D66;}
	.st5{fill:#919DAF;}
	.st6{fill:#474F5F;}
	.st7{fill:#D18736;}
	.st8{fill:#353534;}
	.st9{fill:#7D8A6B;}
	.st10{fill:#859A45;}
	.st11{fill:#94678D;}
	.st12{fill:#1D1D1B;}
	.st13{fill:#74877B;}
	.st14{fill:#9A645A;}
	.st15{fill:#7B756E;}
	.st16{fill:#989E91;}
	.st17{fill:#E1B165;}
	.st18{fill:#C35F7A;}
	.st19{fill:#794751;}
	.st20{fill:#A0392C;}
	.st21{fill:#253F4A;}
	.st22{fill:#D9D9D9;}
	.st23{fill:#0D0D0D;}
	.st24{fill:#C53E46;}
	.st25{fill:#F5B903;}
	.st26{fill:#DEAFB3;}
	.st27{fill:#DEB969;}
	.st28{fill:#C4B29A;}
	.st29{fill:#ECACBE;}
	.st30{fill:#F29100;}
	.st31{fill:#E20613;}
	.st32{fill:#35A8E0;}
	.st33{fill:#544841;}
	.st34{fill:#1A1A1A;}
	.st35{fill:#FFFFFF;}
	.st36{fill:#E884A9;}
	.st37{fill:#D17098;}
	.st38{fill:#F8AF3C;}
	.st39{fill:#C0282E;}
	.st40{fill:#333333;}
	.st41{fill:#B3CBDB;}
	.st42{fill:#DB90AF;}
	.st43{fill:#9E7BB5;}
	.st44{fill:#CCCBCB;}
	.st45{fill:#60AE9F;}
	.st46{fill:#AD4659;}
	.st47{fill:#8A916D;}
	.st48{fill:#634E42;}
	.st49{fill:#9FB2B8;}
	.st50{fill:#AF8368;}
	.st51{fill:#977AA5;}
	.st52{fill:#BD8193;}
	.st53{fill:#91B6B3;}
	.st54{fill:#2E2927;}
	.st55{fill:#F08984;}
	.st56{fill:#C0924D;}
	.st57{fill:#9E2716;}
	.st58{fill:#C32625;}
	.st59{fill:#C6A981;}
	.st60{fill:#4F789E;}
	.st61{fill:#D1B567;}
	.st62{fill:#CDA065;}
	.st63{fill:#D6D6D6;}
	.st64{fill:#BD1622;}
	.st65{fill:#E4BD7A;}
	.st66{fill:#97AA23;}
	.st67{fill:#807B71;}
	.st68{fill:#795A5F;}
	.st69{fill:#4F4D70;}
	.st70{fill:#21375C;}
	.st71{fill:#B1B0B0;}
	.st72{fill:#B6C8A3;}
	.st73{fill:#706F74;}
	.st74{fill:#8D9189;}
	.st75{fill:#988388;}
	.st76{fill:#A09194;}
	.st77{fill:#D6BF93;}
	.st78{fill:#92999D;}
	.st79{fill:#4C8598;}
	.st80{fill:#ACA096;}
	.st81{fill:#476C58;}
	.st82{fill:#A24F4D;}
	.st83{fill:#A0C69A;}
	.st84{fill:#BB6C8D;}
	.st85{fill:#A63338;}
	.st86{fill:#CE995D;}
	.st87{fill:#B2A592;}
	.st88{fill:#D2A895;}
	.st89{fill:#D5A354;}
	.st90{fill:#BF9C63;}
	.st91{fill:#99A8D6;}
	.st92{fill:#F8B133;}
	.st93{fill:#F5A100;stroke:#12100B;stroke-miterlimit:10;}
	.st94{fill:#F5A100;}
	.st95{fill:#E84E1B;}
	.st96{fill:#8A4738;}
	.st97{fill:#C79960;}
	.st98{fill:#987C9A;}
	.st99{fill:#A9B8D0;}
	.st100{fill:#E5A148;}
	.st101{fill:#97B384;}
	.st102{fill:#9DBDD7;}
	.st103{fill:#DCA26C;}
	.st104{fill:#517797;}
	.st105{fill:#847193;}
	.st106{fill:#76C1A3;}
	.st107{fill:#E89955;}
	.st108{fill:#92A753;}
	.st109{fill:#CDABB3;}
	.st110{fill:#938A7C;}
	.st111{fill:#E0C291;}
	.st112{fill:#ADCCDF;}
	.st113{fill:#A0AE84;}
	.st114{fill:#E28E8E;}
	.st115{fill:#A3B6C4;}
	.st116{fill:#7C96A9;}
	.st117{fill:#55A2D9;}
	.st118{fill:#A2A3A6;}
	.st119{fill:#9C9B9B;}
	.st120{fill:#7D8597;}
	.st121{fill:#8DACBF;}
	.st122{fill:#C78792;}
	.st123{fill:#7B434B;}
	.st124{fill:#E7B6C4;}
	.st125{fill:#9E6572;}
	.st126{fill:#E3C1CA;}
	.st127{fill:#D0798B;}
	.st128{fill:#EA94AA;}
	.st129{fill:#C16E75;}
	.st130{fill:#A79FA2;}
	.st131{fill:#485642;}
	.st132{fill:#B38D96;}
	.st133{fill:#7D8075;}
	.st134{fill:#C9A57C;}
	.st135{fill:#A8ACB4;}
	.st136{fill:#8D7F92;}
	.st137{fill:#B0889A;}
	.st138{fill:#686767;}
	.st139{fill:#BF9AB2;}
	.st140{fill:#959FB3;}
	.st141{fill:#877680;}
	.st142{fill:#D2B155;}
	.st143{fill:#CCA3A3;}
	.st144{fill:#739181;}
	.st145{fill:#98877E;}
	.st146{fill:#58533C;}
	.st147{fill:#B69D8A;}
	.st148{fill:#746671;}
	.st149{fill:#ACB884;}
</style>
<g>
	<g>
		<g>
			<ellipse class="st38" cx="81.6" cy="318.1" rx="9.6" ry="9.8"/>
		</g>
		<g>
			<path class="st38" d="M81.6,282.8c5.3,0,9.6,4.4,9.6,9.8c0,5.4-4.3,9.8-9.6,9.8c-5.3,0-9.6-4.4-9.6-9.8
				C72,287.2,76.3,282.8,81.6,282.8z"/>
		</g>
		<g>
			<path class="st38" d="M81.6,257.3c5.3,0,9.6,4.4,9.6,9.8c0,5.4-4.3,9.8-9.6,9.8c-5.3,0-9.6-4.4-9.6-9.8
				C72,261.6,76.3,257.3,81.6,257.3z"/>
		</g>
		<g>
			<path class="st38" d="M81.6,231.7c5.3,0,9.6,4.4,9.6,9.8s-4.3,9.8-9.6,9.8c-5.3,0-9.6-4.4-9.6-9.8S76.3,231.7,81.6,231.7z"/>
		</g>
		<g>
			<ellipse class="st38" cx="81.6" cy="216" rx="9.6" ry="9.8"/>
		</g>
		<g>
			<path class="st38" d="M81.6,180.6c5.3,0,9.6,4.4,9.6,9.8s-4.3,9.8-9.6,9.8c-5.3,0-9.6-4.4-9.6-9.8S76.3,180.6,81.6,180.6z"/>
		</g>
		<g>
			<path class="st38" d="M81.6,155.1c5.3,0,9.6,4.4,9.6,9.8s-4.3,9.8-9.6,9.8c-5.3,0-9.6-4.4-9.6-9.8S76.3,155.1,81.6,155.1z"/>
		</g>
		<g>
			<path class="st38" d="M81.6,129.6c5.3,0,9.6,4.4,9.6,9.8s-4.3,9.8-9.6,9.8c-5.3,0-9.6-4.4-9.6-9.8S76.3,129.6,81.6,129.6z"/>
		</g>
		<g>
			<ellipse class="st38" cx="81.6" cy="113.9" rx="9.6" ry="9.8"/>
		</g>
		<g>
			<ellipse class="st38" cx="106.3" cy="88.5" rx="9.4" ry="9.6"/>
		</g>
		<g>
			<ellipse class="st38" cx="130.7" cy="88.5" rx="9.4" ry="9.6"/>
		</g>
		<g>
			<ellipse class="st38" cx="155" cy="88.5" rx="9.4" ry="9.6"/>
		</g>
		<g>
			<ellipse class="st38" cx="179.4" cy="88.5" rx="9.4" ry="9.6"/>
		</g>
		<g>
			<ellipse class="st38" cx="203.8" cy="88.5" rx="9.4" ry="9.6"/>
		</g>
		<g>
			<ellipse class="st38" cx="228.2" cy="88.5" rx="9.4" ry="9.6"/>
		</g>
		<g>
			<ellipse class="st38" cx="252.6" cy="88.5" rx="9.4" ry="9.6"/>
		</g>
		<g>
			<path class="st38" d="M286.3,88.5c0,5.3-4.2,9.6-9.4,9.6c-5.2,0-9.4-4.3-9.4-9.6c0-5.3,4.2-9.6,9.4-9.6
				C282.1,78.9,286.3,83.2,286.3,88.5z"/>
		</g>
		<g>
			<path class="st38" d="M310.7,88.5c0,5.3-4.2,9.6-9.4,9.6c-5.2,0-9.4-4.3-9.4-9.6c0-5.3,4.2-9.6,9.4-9.6
				C306.5,78.9,310.7,83.2,310.7,88.5z"/>
		</g>
		<g>
			<ellipse class="st38" cx="325.7" cy="88.5" rx="9.4" ry="9.6"/>
		</g>
		<g>
			<ellipse class="st38" cx="350.4" cy="113.9" rx="9.6" ry="9.8"/>
		</g>
		<g>
			<path class="st38" d="M350.4,149.2c-5.3,0-9.6-4.4-9.6-9.8s4.3-9.8,9.6-9.8c5.3,0,9.6,4.4,9.6,9.8S355.7,149.2,350.4,149.2z"/>
		</g>
		<g>
			<path class="st38" d="M350.4,174.7c-5.3,0-9.6-4.4-9.6-9.8s4.3-9.8,9.6-9.8c5.3,0,9.6,4.4,9.6,9.8S355.7,174.7,350.4,174.7z"/>
		</g>
		<g>
			<path class="st38" d="M350.4,200.3c-5.3,0-9.6-4.4-9.6-9.8s4.3-9.8,9.6-9.8c5.3,0,9.6,4.4,9.6,9.8S355.7,200.3,350.4,200.3z"/>
		</g>
		<g>
			<ellipse class="st38" cx="350.4" cy="216" rx="9.6" ry="9.8"/>
		</g>
		<g>
			<path class="st38" d="M350.4,251.4c-5.3,0-9.6-4.4-9.6-9.8s4.3-9.8,9.6-9.8c5.3,0,9.6,4.4,9.6,9.8S355.7,251.4,350.4,251.4z"/>
		</g>
		<g>
			<path class="st38" d="M350.4,276.9c-5.3,0-9.6-4.4-9.6-9.8c0-5.4,4.3-9.8,9.6-9.8c5.3,0,9.6,4.4,9.6,9.8
				C360,272.5,355.7,276.9,350.4,276.9z"/>
		</g>
		<g>
			<path class="st38" d="M350.4,302.4c-5.3,0-9.6-4.4-9.6-9.8c0-5.4,4.3-9.8,9.6-9.8c5.3,0,9.6,4.4,9.6,9.8
				C360,298,355.7,302.4,350.4,302.4z"/>
		</g>
		<g>
			<ellipse class="st38" cx="350.4" cy="318.1" rx="9.6" ry="9.8"/>
		</g>
		<g>
			<ellipse class="st38" cx="325.7" cy="343.5" rx="9.4" ry="9.6"/>
		</g>
		<g>
			<path class="st38" d="M292,343.5c0-5.3,4.2-9.6,9.4-9.6c5.2,0,9.4,4.3,9.4,9.6s-4.2,9.6-9.4,9.6C296.2,353.1,292,348.8,292,343.5
				z"/>
		</g>
		<g>
			<path class="st38" d="M267.6,343.5c0-5.3,4.2-9.6,9.4-9.6c5.2,0,9.4,4.3,9.4,9.6s-4.2,9.6-9.4,9.6
				C271.8,353.1,267.6,348.8,267.6,343.5z"/>
		</g>
		<g>
			<ellipse class="st38" cx="252.6" cy="343.5" rx="9.4" ry="9.6"/>
		</g>
		<g>
			<ellipse class="st38" cx="228.2" cy="343.5" rx="9.4" ry="9.6"/>
		</g>
		<g>
			<ellipse class="st38" cx="203.8" cy="343.5" rx="9.4" ry="9.6"/>
		</g>
		<g>
			<ellipse class="st38" cx="179.4" cy="343.5" rx="9.4" ry="9.6"/>
		</g>
		<g>
			<ellipse class="st38" cx="155" cy="343.5" rx="9.4" ry="9.6"/>
		</g>
		<g>
			<ellipse class="st38" cx="130.7" cy="343.5" rx="9.4" ry="9.6"/>
		</g>
		<g>
			<ellipse class="st38" cx="106.3" cy="343.5" rx="9.4" ry="9.6"/>
		</g>
		<g>
			<circle class="st38" cx="81.6" cy="88.5" r="9.6"/>
		</g>
		<g>
			<circle class="st38" cx="81.6" cy="88.5" r="9.6"/>
		</g>
		<g>
			<circle class="st38" cx="350.4" cy="88.5" r="9.6"/>
		</g>
		<g>
			<circle class="st38" cx="350.4" cy="88.5" r="9.6"/>
		</g>
		<g>
			<circle class="st38" cx="350.4" cy="343.5" r="9.6"/>
		</g>
		<g>
			<circle class="st38" cx="350.4" cy="343.5" r="9.6"/>
		</g>
		<g>
			<circle class="st38" cx="81.6" cy="343.5" r="9.6"/>
		</g>
		<g>
			<circle class="st38" cx="81.6" cy="343.5" r="9.6"/>
		</g>
	</g>
	<g>
		<g>
			<path class="st39" d="M159.6,232.5c0.8,0,1.5,0.2,1.8,0.5c0.4,0.3,0.6,0.9,0.7,1.8c0.2,1.8,0.3,3.6,0.3,5.5
				c0,0.8-0.2,1.4-0.5,1.7c-0.3,0.3-0.9,0.5-1.8,0.6c-1.2,0.1-2.5,0.1-3.7,0.1c-1.2,0-2.4,0-3.7,0.1c-1.1,0-2.2,0-3.3,0
				c-1.1,0-2.1,0-3.2,0c-1.3-0.1-2.2-0.3-2.7-0.8c-0.5-0.5-0.8-1.3-0.9-2.6c-0.2-1.6-0.2-3-0.2-4.3c0.1-1.1,0.4-1.9,0.9-2.3
				c0.5-0.4,1.3-0.5,2.3-0.4h1.4c0.1-0.3,0.2-1.2,0.2-2.8c0-1.6,0-3.5,0-5.8c0-2.3,0-4.7,0-7.3c0-2.6-0.1-5-0.1-7.3
				c-0.1-2.3-0.1-4.3-0.2-5.9c-0.1-1.6-0.2-2.7-0.3-3.1c-0.2,0.2-0.3,0.4-0.5,0.6c-0.2,0.2-0.3,0.4-0.4,0.6l-7.1,11.7
				c-0.9,1.5-1.8,2.2-2.7,2.1c-0.9-0.1-1.7-0.7-2.6-1.8c-1.2-1.5-2.3-3-3.5-4.5c-1.1-1.5-2.3-3.1-3.4-4.7c-0.3-0.5-0.7-0.9-0.9-1.3
				c-0.3-0.4-0.6-0.9-1-1.3c-0.1,1.7-0.1,3.4-0.1,5.1c0.1,1.7,0.1,3.4,0.1,5.1c0,1.8,0,3.5,0.1,5.2c0.1,1.7,0.1,3.4,0.1,5.1
				c0.1,1.8,0.1,3.5,0.1,5.2c0,1.7,0,3.4,0.1,5.2c0.5,0.1,0.8,0.2,1.2,0.3c0.3,0.1,0.7,0.1,1.1,0.3c1.2,0.4,1.9,1.2,2,2.4
				c0,0.8,0,1.6,0,2.3c0,0.8,0,1.5,0,2.3c-0.1,0.9-0.3,1.5-0.7,1.8c-0.3,0.3-0.9,0.5-1.8,0.6c-0.8,0.1-1.6,0.1-2.4,0.1
				c-0.8,0-1.6,0-2.4,0c-1.2,0-2.5,0-3.7,0c-1.2,0-2.5,0-3.7,0h-1.3c-0.8-0.1-1.4-0.3-1.7-0.7c-0.4-0.3-0.6-0.9-0.7-1.7
				c-0.2-1.5-0.3-3.1-0.3-4.7c0.1-1.1,0.3-1.9,0.7-2.2c0.4-0.4,1.1-0.6,2.2-0.7c0.2,0,0.4,0,0.6,0c0.2,0,0.4,0,0.6,0
				c0.1-0.3,0.1-1.4,0.1-3.5c0-2,0-4.5,0-7.4s0-6,0-9.4c0-3.4-0.1-6.5-0.1-9.5c0-3-0.1-5.6-0.2-7.8c-0.1-2.2-0.2-3.5-0.2-4.1h-1.6
				c-0.8-0.1-1.5-0.3-1.8-0.6c-0.4-0.3-0.6-0.9-0.6-1.7c-0.1-1-0.2-1.9-0.1-2.8c0-0.9,0.1-1.8,0.1-2.8c0.1-1,0.6-1.6,1.8-1.6h4.6
				c1.5,0.1,3,0.1,4.5,0.2c1.5,0.1,3,0.1,4.5,0.1c1.1,0,2,0.6,2.5,1.8c1,2.3,2.1,4.5,3.5,6.6c1.4,2.1,2.7,4.1,4.1,6.2
				c0.2,0.2,0.4,0.5,0.6,0.7c0.2-0.3,0.3-0.7,0.5-1c0.2-0.3,0.3-0.6,0.5-0.9c1.1-2,2.2-4.1,3.3-6.1c1.1-2.1,2.2-4.1,3.3-6.1
				c0.5-1,1.3-1.5,2.3-1.5c1.5-0.1,3.1-0.1,4.6,0c1.5,0.1,2.9,0.1,4.3,0.2c1.4,0.1,2.9,0.1,4.3,0.3c1.7,0.2,2.6,1.1,2.6,2.7
				c0.1,0.8,0.1,1.6,0,2.4c0,0.8-0.1,1.6-0.2,2.4c-0.2,1.5-1,2.2-2.5,2.3c-0.5,0.1-0.9,0.1-1.3,0.1c-0.4,0-0.9,0-1.5,0
				c0.1,3.4,0.2,6.8,0.2,10.2c0,3.4,0.1,6.8,0.1,10.2c0.1,3.4,0.1,6.8,0.3,10.2c0.1,3.4,0.3,6.8,0.6,10.2c0.4,0,0.8,0,1.1,0
				C158.8,232.4,159.2,232.4,159.6,232.5z"/>
			<path class="st39" d="M205.7,197.1c0.8,2.4,1.4,4.8,1.7,7.4c0.4,2.6,0.6,5.6,0.6,8.9c-0.1,2.4-0.4,5.1-0.9,8.1
				c-0.5,3.1-1.3,6.1-2.6,9.2c-0.6,1.5-1.3,2.8-2,4c-1.5,2.5-3.3,4.4-5.5,5.6c-2.2,1.2-4.7,2-7.5,2.2c-7.9,0.7-14.3-2.2-19.2-8.6
				c-1.6-2.1-2.9-4.3-3.7-6.7c-0.8-2.4-1.5-4.8-1.9-7.4c-0.8-4.6-0.8-9,0-13.4c0.8-4.3,2.1-8.6,4.1-12.8c0.5-1.1,1.1-2.2,1.8-3.2
				c0.7-1,1.5-2,2.3-2.9c3.1-3.3,7-5.2,11.8-5.9c1.7-0.2,3.3-0.2,4.9,0.2c1.6,0.4,3.1,0.9,4.6,1.6c3.1,1.3,5.5,3.1,7.3,5.4
				C203.1,191.4,204.6,194,205.7,197.1z M194.5,228.6c1.2-2.1,2-4.4,2.5-6.6c0.5-2.3,0.7-4.6,0.7-7c0-2.3-0.2-4.5-0.6-6.6
				c-0.4-2.1-1-4.3-1.7-6.4c-0.7-2-1.7-3.9-2.8-5.7c-0.5-0.7-1-1.4-1.6-2c-0.6-0.6-1.2-1.2-1.9-1.8c-1.4-1.1-2.8-1.3-4.2-0.6
				c-1.1,0.5-2.2,1.2-3.2,2c-1.1,1-2,2.1-2.6,3.3c-0.6,1.2-1.1,2.5-1.6,3.8c-0.9,3-1.4,6-1.5,9c-0.1,3,0,6.1,0.4,9.1
				c0.2,1.4,0.5,2.8,0.9,4.1c0.4,1.3,1,2.6,1.8,3.9c1,1.6,2.2,2.8,3.6,3.6c1.4,0.8,3,1.2,4.9,1.1c0.2,0,0.4,0,0.6,0
				c0.2,0,0.3,0,0.4,0c1.3-0.1,2.5-0.4,3.5-0.9C193.1,230.7,193.9,229.8,194.5,228.6z"/>
			<path class="st39" d="M256.8,181.5c1.4,0.2,2.2,0.9,2.5,2.2c0.5,1.4,0.5,2.8,0,4.4c-0.2,0.7-0.6,1.2-1.1,1.4
				c-0.5,0.3-1.1,0.5-1.7,0.5h-2.9c-0.2,1-0.4,1.9-0.6,2.9c-0.2,1-0.4,2-0.6,2.9c-1,3.7-1.9,7.5-2.8,11.2c-0.9,3.7-1.9,7.5-2.8,11.2
				c-0.7,2.9-1.4,5.7-2,8.5c-0.7,2.8-1.4,5.6-2.1,8.5c-0.2,0.8-0.5,1.6-0.8,2.4c-0.3,0.8-0.6,1.6-0.9,2.4c-0.7,1.7-2,2.5-3.9,2.5
				c-1.2,0-2.5,0-3.6,0.1c-1.2,0.1-2.4,0.1-3.6,0c-2.4-0.1-3.8-1.3-4.4-3.6c-0.6-2.7-1.3-5.3-1.9-7.8c-0.7-2.5-1.4-5.1-2-7.7
				c-1-3.6-1.9-7.1-2.8-10.7c-0.9-3.6-1.9-7.1-2.8-10.7c-0.5-1.6-0.9-3.2-1.2-4.7c-0.4-1.6-0.8-3.2-1.1-4.7
				c-0.1-0.2-0.1-0.5-0.2-0.7c-0.1-0.2-0.1-0.5-0.3-0.8h-2.8c-0.8-0.1-1.3-0.3-1.7-0.5c-0.3-0.2-0.5-0.7-0.6-1.4
				c-0.1-1.1-0.2-2.1-0.2-3.2c0-1,0-2.1,0-3.2c0-0.2,0.1-0.5,0.3-0.7c0.2-0.3,0.4-0.4,0.6-0.6c0.5-0.2,1-0.3,1.7-0.3
				c2.1,0,4.3,0,6.5,0c2.2,0,4.4,0,6.5,0c0.6,0,1,0,1.3,0.1c1.4,0.3,2.2,1.1,2.4,2.5c0.1,0.7,0.2,1.4,0.2,2c0,0.7,0,1.4-0.1,2
				c-0.1,0.9-0.3,1.6-0.6,2c-0.4,0.4-1,0.7-1.9,0.8c-0.2,0.1-0.5,0.1-0.9,0.3c1.8,6.7,3.5,13.3,5.3,19.9c1.8,6.6,3.5,13.3,5.3,20.1
				c0.2-0.3,0.3-0.6,0.4-0.8c0.1-0.2,0.1-0.3,0.1-0.5c0.7-2.9,1.3-5.8,2-8.7c0.6-2.9,1.3-5.8,2-8.7c0.8-3.5,1.6-7,2.4-10.4
				c0.8-3.4,1.6-6.9,2.4-10.4c0.1-0.3,0.2-0.6,0.2-0.8c0-0.3,0.1-0.6,0.2-0.9c-0.5,0-1,0-1.5,0c-0.5,0-0.9,0-1.4-0.1
				c-1-0.1-1.6-0.2-1.9-0.5c-0.3-0.3-0.5-0.9-0.5-2c0-0.6,0-1.2,0-1.9c0-0.6,0-1.2,0-1.9c0.1-1.2,0.7-2,1.9-2.2
				c0.3-0.1,0.6-0.1,1.1-0.1c2.3,0,4.6,0,6.9,0c2.3,0,4.5,0,6.9,0c0.2,0,0.4,0,0.6,0C256.4,181.5,256.6,181.5,256.8,181.5z"/>
			<path class="st39" d="M284,233c1,0.1,1.7,0.3,2,0.7c0.3,0.3,0.5,1,0.5,2c0,0.8,0,1.6,0,2.4s0,1.7-0.1,2.5
				c-0.1,0.9-0.2,1.4-0.5,1.7c-0.3,0.3-0.8,0.4-1.7,0.4c-2.7,0-5.3,0-7.8,0c-2.6,0-5.2,0-7.8-0.1c-0.8,0-1.4,0-1.8-0.1
				c-0.4-0.1-0.7-0.2-0.9-0.4c-0.2-0.2-0.4-0.5-0.5-0.9c-0.1-0.4-0.2-1-0.2-1.7c-0.1-0.7-0.2-1.5-0.2-2.2c0-0.7,0-1.5,0-2.3
				c0-1.4,0.7-2.2,2.2-2.2c0.3-0.1,0.5-0.1,0.8-0.1c0.2,0,0.5,0,0.7,0h1.6c0.1-7.1,0.1-14,0-20.9c-0.1-6.9-0.1-13.8,0-20.9
				c-1.5-0.4-3.1-0.5-4.7-0.3c-0.8,0.1-1.3,0-1.7-0.3c-0.3-0.2-0.4-0.7-0.4-1.5c0.1-1,0.1-1.9,0.2-2.8c0.1-0.9,0.1-1.9,0.3-2.8
				c0.1-0.7,0.5-1.1,1.2-1.2c1-0.2,2-0.3,3-0.3c0.8,0,1.6,0,2.5,0c0.8,0,1.7,0,2.5,0l13,0.3c0.8,0,1.4,0.1,1.8,0.4
				c0.4,0.3,0.6,0.8,0.8,1.6c0.2,1.5,0.3,2.9,0.3,4.4c0,1-0.5,1.5-1.4,1.5c-0.9,0.1-1.8,0.2-2.7,0.2c-0.9,0-1.7,0.1-2.6,0.1h-1.9
				c0.1,7.2,0.2,14.3,0.3,21.3c0.1,7,0.1,14.1,0.3,21.2c0.6,0.1,1.2,0.1,1.7,0.1C283,233,283.5,233,284,233z"/>
			<path class="st39" d="M323.9,233.4c1,0.2,1.4,0.7,1.4,1.5c0,0.9,0,1.8,0,2.6c0,0.8-0.1,1.7-0.2,2.5c-0.2,1.6-1.2,2.5-3,2.5
				c-3.2,0.1-6.4,0.1-9.7,0.1c-3.2,0-6.5,0-9.8,0c-1.3,0-2.6,0-3.8,0c-1.2,0-2.5,0-3.8,0c-1-0.1-1.6-0.2-1.9-0.6
				c-0.3-0.3-0.5-0.9-0.6-1.9c-0.1-1-0.2-2-0.1-3c0-1,0-2,0-3c0-0.7,0.4-1.1,1.2-1.2c0.5-0.1,0.9-0.1,1.4-0.1c0.5,0,1,0,1.4-0.1
				c0.6-0.1,1-0.2,1.2-0.3c0.2-0.1,0.3-0.5,0.3-1.1c-0.1-6.4-0.2-12.8-0.2-19.2c0-6.4-0.1-12.8-0.1-19.2v-1.6
				c-0.5-0.1-0.9-0.1-1.3-0.1c-0.4,0-0.9,0-1.3-0.1c-0.8-0.1-1.3-0.2-1.6-0.5c-0.3-0.3-0.5-0.8-0.6-1.6c-0.2-1.6-0.3-3.2-0.3-4.9
				c0-0.8,0.1-1.3,0.4-1.7c0.3-0.3,0.8-0.5,1.6-0.6c1.2-0.1,2.4-0.1,3.6,0c1.2,0,2.3,0,3.5,0c1.9,0,3.7,0,5.6,0c1.9,0,3.8,0,5.6-0.1
				c1.6,0,3.2,0,4.7,0c1.6,0,3.2,0,4.8,0c0.8,0,1.4,0.2,1.8,0.6s0.5,1,0.6,1.8c0,0.8,0,1.6,0,2.5c0,0.8-0.1,1.7-0.2,2.5
				c-0.1,0.7-0.3,1.1-0.6,1.4c-0.3,0.3-0.7,0.4-1.5,0.5c-1,0.1-2,0.1-3.1,0.1c-1,0-2.1,0.1-3.2,0.2c-0.6,0-1.3,0-1.9,0
				c-0.7,0-1.3,0-1.9,0c-0.6,0.1-1.1,0.1-1.6,0.1c-0.5,0-1.1,0.1-1.7,0.1v14.2h3.2c1.1,0.1,2.1,0.1,3.2,0.1c1,0,2.1,0,3.2,0
				c1,0.1,1.7,0.3,2.1,0.6c0.4,0.4,0.5,1.1,0.5,2.1c0,1,0,1.9,0,2.8c0,0.9-0.1,1.9-0.1,2.8c-0.1,0.9-0.2,1.5-0.5,1.9
				c-0.3,0.3-0.9,0.6-1.8,0.7c-0.7,0.1-1.4,0.2-2,0.2c-0.7,0-1.4,0-2,0h-5.6c-0.1,2.6-0.1,5.2,0,7.7c0.1,2.5,0.2,5.1,0.3,7.7
				c0.8,0.1,1.5,0.1,2.2,0.1c0.7,0,1.4,0.1,2.2,0.1h7c0.5,0,1,0,1.5,0.1C322.9,233.2,323.4,233.3,323.9,233.4z"/>
		</g>
		<g>
			<path class="st40" d="M150.6,319.4c0,0.1,0,0.3,0.1,0.5c0,0.2,0,0.4-0.1,0.6c0,1.1-0.1,1.7-0.4,2c-0.3,0.3-0.9,0.4-2,0.4
				c-1.4,0-2.8,0-4.1,0c-1.4,0-2.7,0-4.1,0c-1.5,0-2.6-0.7-3.1-2c-0.7-1.7-1.6-3.8-2.6-6.1c-1-2.3-2-4.7-3.1-7.2
				c-1.1-2.5-2.1-4.9-3.1-7.2c-1-2.4-2-4.5-2.8-6.4c-0.9-1.9-1.6-3.4-2.1-4.6c-0.6-1.2-0.9-1.8-0.9-1.9c0,0.4,0,1.5,0.1,3.3
				c0,1.8,0,3.9,0,6.3c0,2.4,0,5,0.1,7.8c0,2.8,0.1,5.3,0.1,7.7c0,2.4,0.1,4.4,0.1,6c0,1.7,0,2.6,0,2.8c0,0.6-0.1,1-0.2,1.1
				c-0.2,0.2-0.5,0.3-1.1,0.3c-3.2,0.1-6.4,0.1-9.5,0c-0.5,0-0.9-0.1-1.1-0.4c-0.2-0.2-0.3-0.7-0.3-1.4c0-0.3,0-1.3,0-3.1
				c0-1.8-0.1-4.2-0.1-7c-0.1-2.9-0.1-6.1-0.1-9.7c0-3.6-0.1-7.3-0.1-11.1c-0.1-3.8-0.1-7.6-0.1-11.4c0-3.8-0.1-7.3-0.1-10.5
				c-0.1-3.2-0.1-6-0.1-8.4c0-2.4-0.1-4-0.1-5v-1.2c0-0.3,0.1-0.6,0.3-0.8c0.2-0.2,0.5-0.4,0.8-0.4h3.6h6c1.1,0,1.7,0.1,2,0.3
				c0.3,0.2,0.6,0.8,0.9,1.7c0.7,2,1.6,4.3,2.6,6.8c1,2.6,2.1,5.2,3.2,8c1.1,2.8,2.2,5.5,3.2,8.1c1.1,2.7,2,5,2.8,7.1
				c0.8,2.1,1.8,4.4,2.8,7c0-0.1,0-1,0-2.9c0-1.9-0.1-4.2-0.1-6.9c0-2.7,0-5.7-0.1-8.9c-0.1-3.2-0.1-6.2-0.1-8.9c0-2.8,0-5.1-0.1-7
				c0-1.9-0.1-3-0.1-3.2c0.1-0.9,0.6-1.3,1.3-1.3h9.7c0.7,0,1.2,0.1,1.3,0.2c0.1,0.2,0.3,0.6,0.4,1.3c0,0.1,0,1,0,2.7
				c0,1.8,0.1,4,0.1,6.8c0,2.8,0.1,6,0.1,9.6c0.1,3.6,0.1,7.4,0.1,11.2c0,3.9,0.1,7.7,0.1,11.5c0,3.8,0.1,7.4,0.1,10.6
				c0,3.2,0.1,6,0.1,8.3C150.6,317,150.6,318.6,150.6,319.4z"/>
			<path class="st40" d="M167.5,252.4c0.5,0.1,0.7,0.5,0.6,1.3v66.5c0,1.3-0.1,2.1-0.3,2.3c-0.2,0.2-1,0.4-2.3,0.4h-6.6H158
				c-1-0.1-1.5-0.7-1.5-1.6c-0.1-11.3-0.1-22.7-0.1-34.1c0-11.4-0.1-22.7-0.1-33.8c0-0.6,0.2-0.9,0.5-1c0.4-0.1,0.6-0.1,0.7-0.1h7.4
				C166.1,252.3,167,252.3,167.5,252.4z"/>
			<path class="st40" d="M227.1,320.5c0.1,0.1,0.1,0.3,0.2,0.4c0.1,0.2,0.2,0.4,0.3,0.7c-0.3,0.3-0.7,0.5-1,0.7
				c-0.3,0.2-0.7,0.4-1,0.6c-0.6,0.3-1.2,0.6-1.8,0.9c-0.6,0.3-1.2,0.6-1.8,0.9c-0.7,0.3-1.1,0.5-1.4,0.4c-0.3-0.1-0.6-0.4-0.9-1
				c-0.5-0.8-1-1.6-1.5-2.5c-0.5-0.9-1-1.7-1.5-2.5c-0.1-0.3-0.3-0.6-0.4-0.9c-0.1-0.3-0.3-0.6-0.4-0.9c-0.3,0.2-0.6,0.4-0.8,0.6
				c-0.2,0.2-0.4,0.4-0.6,0.5c-2.1,1.5-4.3,2.7-6.6,3.4c-2.3,0.8-4.7,0.9-7.3,0.5c-2.5-0.3-4.8-1-6.9-1.9c-2.2-1-4.2-2.2-6.1-3.6
				c-3.2-2.3-5.7-5.1-7.5-8.3c-1.8-3.2-3.1-6.7-3.8-10.5c-2-10.2-1-20.1,3-29.6c1.1-2.5,2.5-4.9,4-7.1c1.6-2.2,3.5-4,5.9-5.5
				c3.6-2.1,7.3-3.4,11-3.7c3.7-0.4,7.6,0.3,11.5,2.1c0.9,0.5,1.8,1,2.7,1.7c0.9,0.7,1.7,1.4,2.4,2.1c0.7,0.7,0.8,1.4,0.4,2.2
				c-0.5,0.8-1,1.6-1.5,2.4c-0.5,0.8-1,1.6-1.5,2.4c-0.4,0.7-0.7,1.1-1,1.2c-0.3,0.1-0.8-0.2-1.5-0.7c-1.3-0.9-2.7-1.6-4.1-2.1
				c-1.4-0.6-2.9-0.9-4.5-1c-2.1-0.2-4,0-5.7,0.6c-1.7,0.6-3.3,1.7-4.6,3.3c-0.5,0.7-1.1,1.5-1.6,2.3c-0.5,0.8-1,1.6-1.3,2.5
				c-1.9,4.8-2.9,9.6-3,14.5c-0.2,4.9,0.6,9.7,2.2,14.7c1.3,3.7,3.2,6.7,5.9,9.1c1.3,1.1,2.6,1.9,4.1,2.3c1.5,0.4,3,0.5,4.5,0.3
				c1.5-0.2,2.9-0.8,4.2-1.6c1.3-0.8,2.4-2,3.3-3.4c0.5-0.8,1-1.6,1.3-2.5c0.4-0.9,0.6-1.8,0.7-2.8c0.3-1.5,0.4-3.2,0.4-5
				c0-1.8-0.1-3.4-0.3-4.9c-0.2,0-0.4,0-0.6,0c-0.2,0-0.4,0-0.6,0h-13.6c-0.3,0-0.5,0-0.8,0c-0.3,0-0.5,0-0.8-0.1
				c-0.2-0.1-0.4-0.2-0.6-0.4c-0.2-0.2-0.3-0.4-0.3-0.5c-0.1-1.1-0.1-2-0.1-2.7c0-0.7-0.1-1.6-0.1-2.6c0-0.4,0.1-0.7,0.1-1
				c0.1-0.3,0.4-0.5,0.8-0.6c0.4-0.2,1.1-0.3,1.9-0.3c0.8,0,2-0.1,3.4-0.1c3.1-0.1,6.2-0.1,9.3-0.1c3.1,0,6.2,0,9.3,0
				c1.1,0,1.9,0.2,2.2,0.5c0.4,0.3,0.5,1.1,0.5,2.2c0,1.9,0,3.7-0.1,5.5c-0.1,1.8-0.1,3.6-0.2,5.4c-0.1,2.8,0,5.6,0.1,8.3
				c0.2,2.7,0.5,5.5,1.1,8.3c0.3,1.2,0.7,2.4,1.2,3.5C226,318.3,226.5,319.4,227.1,320.5z"/>
			<path class="st40" d="M280.3,254.2c0,0.1,0,1.2,0,3.1c0,1.9,0.1,4.4,0.1,7.5c0,3.1,0.1,6.5,0.1,10.4c0,3.9,0.1,7.9,0.1,11.9
				c0,4.1,0.1,8.1,0.1,12c0,3.9,0.1,7.5,0.1,10.6c0,3.2,0,5.8,0,7.8c0,2,0,3.2,0,3.5c0,0.9-0.1,1.5-0.3,1.8
				c-0.2,0.3-0.7,0.4-1.5,0.4c-1.3,0-2.7,0-4,0c-1.4,0-2.7-0.1-4.1-0.1c-1,0-1.6-0.5-1.7-1.6c0-0.1,0-0.8,0-2.2c0-1.4,0-3.1-0.1-5.2
				c0-2.1,0-4.3,0-6.7c0-2.4,0-4.7-0.1-6.9c0-2.2-0.1-4-0.1-5.5c0-1.5,0-2.5,0-2.8l-22.1,0.4c0,0.1,0,0.9,0,2.4c0,1.5,0,3.3,0,5.4
				c0,2.1,0.1,4.4,0.1,6.9c0,2.5,0.1,4.8,0.1,6.9c0,2.1,0.1,3.9,0.1,5.3c0,1.4,0,2.2,0,2.2c0,0.9-0.4,1.3-1.3,1.3
				c-1.7,0-3.3,0-4.9,0c-1.6,0-3.2,0-4.8-0.1c-0.5,0-0.9-0.1-1-0.3c-0.2-0.2-0.2-0.7-0.2-1.4c0-0.5,0-1.8,0-3.9c0-2.1,0-4.8-0.1-8
				c0-3.2-0.1-6.8-0.1-10.7c0-3.9-0.1-7.9-0.1-12c0-4.1-0.1-8-0.1-11.8c0-3.8-0.1-7.3-0.1-10.3c0-3-0.1-5.5-0.1-7.3
				c0-1.9,0-2.8,0-2.9c0.1-0.8,0.2-1.3,0.4-1.5c0.2-0.2,0.7-0.3,1.4-0.4c1.1-0.1,2.3-0.1,3.5-0.1c1.2,0,2.4,0,3.5,0
				c0.3,0,0.6,0,0.9,0c0.3,0,0.6,0,0.9,0c0.4,0,0.7,0.1,1,0.4c0.3,0.3,0.4,0.7,0.4,1.1c0.1,1,0.1,2,0.1,3.1c0,1.1,0,2.2,0,3.2
				c0,1.7,0,3.8,0.1,6.2c0,2.4,0.1,4.7,0.1,7c0,2.3,0.1,4.2,0.1,5.9c0,1.7,0.1,2.6,0.1,2.8c3.7-0.1,7.4-0.1,10.9-0.1
				c3.6,0,7.2-0.1,10.9-0.1c0-0.1,0-0.6,0-1.6c0-1,0-2.3-0.1-3.9c0-1.6-0.1-3.3-0.1-5.3c0-2-0.1-3.9-0.1-5.9c0-2-0.1-3.9-0.1-5.8
				c0-1.9-0.1-3.6-0.1-5c0-0.9,0.1-1.4,0.3-1.6c0.2-0.2,0.7-0.3,1.4-0.3c1.4,0,2.8,0,4.2,0c1.4,0,2.8,0.1,4.2,0.1
				c0.7,0,1.2,0.1,1.4,0.3C280,253,280.1,253.4,280.3,254.2z"/>
			<path class="st40" d="M325.1,253.8c0.1,0.9,0.2,1.8,0.1,2.7c0,0.9-0.1,1.8-0.1,2.7c-0.1,0.9-0.6,1.4-1.5,1.5l-12.5,0.2v5.4
				c0,1,0,2.8,0.1,5.3c0,2.5,0.1,5.5,0.1,8.8c0,3.3,0,6.9,0,10.8c0,3.9,0.1,7.6,0.1,11.3c0,3.7,0,7.1,0,10.2c0,3.2,0,5.7,0,7.7
				c0,0.9-0.1,1.5-0.3,1.8c-0.2,0.3-0.8,0.4-1.8,0.4c-1.3,0-2.5,0-3.7,0c-1.2,0-2.5,0-3.7,0c-1,0-1.6-0.1-1.8-0.3
				c-0.2-0.2-0.3-0.8-0.3-1.7c0-2.1,0-4.8,0-8.1c0-3.3-0.1-7-0.1-10.9c0-4-0.1-8-0.1-12.2c0-4.2-0.1-8.1-0.1-11.7
				c0-3.6-0.1-6.8-0.1-9.6c0-2.8-0.1-4.8-0.1-6c0-0.1,0-0.3,0-0.5c0-0.2-0.1-0.4-0.1-0.6c-1.8-0.2-3.6-0.3-5.4-0.1
				c-1.8,0.1-3.7,0-5.5-0.1c-0.9-0.1-1.3-0.6-1.3-1.4c-0.1-1-0.2-2-0.3-3c-0.1-1-0.1-2,0-3c0-0.3,0.1-0.6,0.3-0.7
				c0.2-0.2,0.5-0.3,0.8-0.3c0.1,0,1,0,2.8,0c1.8,0,4,0,6.7,0c2.7,0,5.5,0,8.6,0c3.1,0,6,0.1,8.6,0.1c2.6,0,4.8,0,6.6,0
				c1.8,0,2.7,0,2.7,0C324.4,252.4,324.9,252.8,325.1,253.8z"/>
		</g>
		<g>
			<g>
				<path class="st40" d="M177.1,110.9c0.4,0.1,0.6,0.4,0.6,1.1v56.5c0,1.1-0.1,1.8-0.3,2c-0.2,0.2-0.9,0.3-2,0.4h-5.6H169
					c-0.8-0.1-1.3-0.6-1.3-1.4c-0.1-9.6-0.1-19.3-0.1-29c0-9.7-0.1-19.3-0.1-28.7c0-0.5,0.2-0.8,0.5-0.9c0.3-0.1,0.5-0.1,0.6-0.1
					h6.3C175.9,110.8,176.6,110.8,177.1,110.9z"/>
				<path class="st40" d="M215.3,112.1c0.1,0.8,0.2,1.6,0.1,2.3c0,0.7-0.1,1.5-0.1,2.3c-0.1,0.7-0.5,1.2-1.3,1.3l-10.6,0.2v4.6
					c0,0.8,0,2.3,0,4.5c0,2.1,0,4.6,0,7.5c0,2.8,0,5.9,0,9.2c0,3.3,0,6.5,0,9.6c0,3.1,0,6,0,8.7c0,2.7,0,4.9,0,6.6
					c0,0.8-0.1,1.3-0.3,1.5c-0.2,0.2-0.7,0.3-1.6,0.3c-1.1,0-2.1,0-3.2,0c-1,0-2.1,0-3.2,0c-0.8,0-1.4-0.1-1.5-0.3
					c-0.2-0.2-0.3-0.6-0.3-1.4c0-1.8,0-4,0-6.9c0-2.8-0.1-5.9-0.1-9.3c0-3.4-0.1-6.8-0.1-10.3c0-3.5-0.1-6.8-0.1-9.9
					c0-3.1-0.1-5.8-0.1-8.2c0-2.4,0-4.1,0-5.1c0-0.1,0-0.3,0-0.4c0-0.2,0-0.3,0-0.5c-1.5-0.2-3.1-0.2-4.6-0.1
					c-1.6,0.1-3.1,0-4.7-0.1c-0.7-0.1-1.1-0.5-1.1-1.2c-0.1-0.8-0.2-1.7-0.3-2.5c-0.1-0.8-0.1-1.7,0-2.5c0-0.3,0.1-0.5,0.3-0.6
					c0.2-0.1,0.4-0.2,0.7-0.3c0.1,0,0.8,0,2.4,0c1.5,0,3.4,0,5.7,0c2.3,0,4.7,0,7.3,0c2.6,0,5.1,0,7.3,0c2.2,0,4.1,0,5.6,0
					c1.5,0,2.3,0,2.3,0C214.7,110.9,215.1,111.3,215.3,112.1z"/>
				<path class="st40" d="M230.6,111.4c0.3,0.3,0.3,0.7,0.2,1.1c-0.5,2-0.9,3.9-1.4,5.8c-0.5,1.9-0.9,3.7-1.4,5.5
					c-0.3,1.2-1,1.9-2.1,1.9c-1.4,0.1-2.8,0.1-4.2,0c-0.6-0.1-1.1-0.4-1.4-1c-0.3-0.6-0.4-1.2-0.1-1.8c0.2-0.7,0.4-1.3,0.6-1.8
					c0.2-0.5,0.3-1.1,0.5-1.7c0.2-0.6,0.4-1.2,0.6-1.9c0.2-0.7,0.5-1.5,0.9-2.5c0.5-1.3,1.1-2.3,1.8-3.1c0.7-0.8,1.5-1.1,2.5-1h2.5
					C230.1,110.9,230.4,111,230.6,111.4z"/>
				<path class="st40" d="M268.3,148.8c1.5,7.2-0.5,13.1-5.8,17.9c-2.2,2-4.6,3.2-7.2,3.6c-2.6,0.4-5.4,0.3-8.2-0.4
					c-1.8-0.5-3.5-1.1-5.2-1.9c-1.6-0.8-3.2-1.8-4.7-2.9c-0.1-0.1-0.2-0.1-0.3-0.2c-0.1-0.1-0.1-0.1-0.3-0.2
					c-0.8-0.7-1.2-1.2-1.2-1.6c0-0.4,0.3-1,0.9-1.8c0.4-0.5,0.8-0.9,1.1-1.4c0.4-0.5,0.7-0.9,1.1-1.4c0.5-0.6,0.9-1,1.1-1
					c0.2-0.1,0.6,0.1,1.3,0.6c1,0.6,1.9,1.2,2.8,1.7c0.9,0.5,2,0.9,3.1,1.2c1,0.3,1.9,0.5,2.9,0.6c1,0.1,2,0.1,3-0.1
					c2-0.3,3.7-1.1,5.1-2.5c1.4-1.4,2.2-3.1,2.5-5c0.1-0.6,0.1-1.2,0-1.7c-0.1-0.5-0.3-1-0.6-1.5c-0.5-1.1-1.1-2-1.9-2.7
					c-0.8-0.7-1.7-1.3-2.7-1.7c-1.1-0.5-2.3-1-3.4-1.5c-1.1-0.5-2.3-1-3.4-1.5c-0.7-0.3-1.4-0.7-2-1c-0.7-0.3-1.3-0.7-2-1.1
					c-2.3-1.6-4.1-3.5-5.2-5.6c-1.2-2.2-1.9-4.6-2.1-7.4c-0.3-4,0.5-7.6,2.4-10.9c1-1.6,2.1-3,3.5-4c1.4-1,3-1.8,4.9-2.2
					c1.5-0.3,3-0.5,4.5-0.4c1.5,0.1,2.9,0.2,4.3,0.5c1.4,0.3,2.7,0.6,3.8,1.1c1.2,0.5,2.1,0.9,2.9,1.4c0.3,0.2,0.6,0.4,0.8,0.6
					c0.3,0.2,0.6,0.4,0.8,0.6c0.8,0.6,1.2,1.1,1.3,1.4c0.1,0.3-0.1,0.9-0.6,1.8c-0.3,0.5-0.6,1-0.8,1.5c-0.3,0.5-0.6,1-0.9,1.5
					c-0.3,0.6-0.7,0.9-0.9,0.9c-0.3,0.1-0.7-0.1-1.4-0.4c-0.6-0.3-1.1-0.6-1.6-0.9c-0.5-0.3-1-0.6-1.6-0.9c-1.8-0.8-3.7-1.3-5.6-1.3
					c-2.5,0-4.5,0.9-5.9,2.6c-1.4,1.7-1.9,3.9-1.4,6.4c0.3,1.7,0.9,3.2,1.8,4.5c0.9,1.3,2.1,2.3,3.7,3c0.8,0.3,1.6,0.7,2.4,1
					c0.8,0.3,1.6,0.7,2.4,0.9c2.1,0.8,4.3,2,6.4,3.5C265.8,142.2,267.7,145.1,268.3,148.8z"/>
			</g>
			<g>
				<path class="st38" d="M334.1,133.3c1.4-1.4,0.6-3.7-1.3-4l-18.4-2.7c-0.8-0.1-1.4-0.6-1.8-1.3l-8.3-16.7c-0.9-1.7-3.3-1.7-4.2,0
					l-8.3,16.7c-0.3,0.7-1,1.2-1.8,1.3l-18.4,2.7c-1.9,0.3-2.7,2.6-1.3,4l13.4,13c0.6,0.5,0.8,1.3,0.7,2.1l-3.2,18.4
					c-0.3,1.9,1.7,3.4,3.4,2.5l16.5-8.7c0.7-0.4,1.5-0.4,2.2,0l16.5,8.7c1.7,0.9,3.7-0.6,3.4-2.5l-3.2-18.4
					c-0.1-0.8,0.1-1.5,0.7-2.1L334.1,133.3z"/>
				<path class="st38" d="M161.6,133.3c1.4-1.4,0.6-3.7-1.3-4l-18.4-2.7c-0.8-0.1-1.4-0.6-1.8-1.3l-8.3-16.7c-0.9-1.7-3.3-1.7-4.2,0
					l-8.3,16.7c-0.3,0.7-1,1.2-1.8,1.3l-18.4,2.7c-1.9,0.3-2.7,2.6-1.3,4l13.4,13c0.6,0.5,0.8,1.3,0.7,2.1l-3.2,18.4
					c-0.3,1.9,1.7,3.4,3.4,2.5l16.5-8.7c0.7-0.4,1.5-0.4,2.2,0l16.5,8.7c1.7,0.9,3.7-0.6,3.4-2.5l-3.2-18.4
					c-0.1-0.8,0.1-1.5,0.7-2.1L161.6,133.3z"/>
			</g>
		</g>
	</g>
</g>
</svg>
